<svg xmlns="http://www.w3.org/2000/svg" viewBox="0 0 100 100"><path d="M37.5 11c1.9 0 3.5-1.6 3.5-3.5S39.4 4 37.5 4 34 5.6 34 7.5s1.6 3.5 3.5 3.5zm0-6C38.9 5 40 6.1 40 7.5S38.9 10 37.5 10 35 8.9 35 7.5 36.1 5 37.5 5zm8 4c.8 0 1.5-.7 1.5-1.5S46.3 6 45.5 6 44 6.7 44 7.5 44.7 9 45.5 9zm0-2c.3 0 .5.2.5.5s-.2.5-.5.5-.5-.2-.5-.5.2-.5.5-.5zM4 81h36V28H4v53zm2-51h32v49H6V30zm16 53c-2.8 0-5 2.2-5 5s2.2 5 5 5 5-2.2 5-5-2.2-5-5-5zm0 8c-1.7 0-3-1.3-3-3s1.3-3 3-3 3 1.3 3 3-1.3 3-3 3zm-3-66h6c1.1 0 2-.9 2-2s-.9-2-2-2h-6c-1.1 0-2 .9-2 2s.9 2 2 2zm0-3h6c.6 0 1 .4 1 1s-.4 1-1 1h-6c-.6 0-1-.4-1-1s.4-1 1-1zm-6 3c1.1 0 2-.9 2-2s-.9-2-2-2-2 .9-2 2 .9 2 2 2zm0-3c.6 0 1 .4 1 1s-.4 1-1 1-1-.4-1-1 .4-1 1-1z"/><path d="M98 40h-2v-2c0-.6-.4-1-1-1h-3V8c0-1.5-1.5-3-3-3s-3 1.5-3 3v22c0 .4-.6 1-1 1s-1-.6-1-1V8c0-1.5-1.5-3-3-3s-3 1.5-3 3v82c0 3.4-2.6 6-6 6H59c-3.4 0-6-2.6-6-6h2.4c1.4 0 2.6-1.2 2.6-2.6V84h11c2.8 0 5-2.2 5-5V5c0-2.8-2.2-5-5-5H35c-2.8 0-5 2.2-5 5v11H5c-2.8 0-5 2.2-5 5v74c0 2.8 2.2 5 5 5h34c2.8 0 5-2.2 5-5V84h2v3.4c0 1.4 1.2 2.6 2.6 2.6H51c0 4.6 3.4 8 8 8h13c4.6 0 8-3.4 8-8V8c0-.4.6-1 1-1s1 .6 1 1v22c0 1.5 1.5 3 3 3s3-1.5 3-3V8c0-.4.6-1 1-1s1 .6 1 1v29h-3c-.6 0-1 .4-1 1v2h-2c-1.1 0-2 .9-2 2v26c0 1.1.9 2 2 2h1v9c0 1.1.9 2 2 2h1c1.1 0 2-.9 2-2v-9h2v9c0 1.1.9 2 2 2h1c1.1 0 2-.9 2-2v-9h1c1.1 0 2-.9 2-2V42c0-1.1-.9-2-2-2zM42 92c0 1.7-1.3 3-3 3H5c-1.7 0-3-1.3-3-3V21c0-.2 0-.4.1-.6C2.3 19 3.6 18 5 18h34c.2 0 .4 0 .6.1 1.2.2 2.1 1.2 2.3 2.3 0 .2.1.4.1.6v71zm-3-76h-7v-2h40v62c0 1.7-1.3 3-3 3H44V21c0-2.8-2.2-5-5-5zM35 2h34c1.4 0 2.7 1 2.9 2.4.1.2.1.4.1.6v8H32V5c0-.2 0-.4.1-.6C32.3 3 33.6 2 35 2zm4 96H5c-1.7 0-3-1.3-3-3v-.4c.7.9 1.8 1.4 3 1.4h34c1.2 0 2.3-.5 3-1.4v.4c0 1.7-1.3 3-3 3zm5-16v-2h25c1.2 0 2.3-.5 3-1.4v.4c0 1.7-1.3 3-3 3H44zm12 2v2h-8v-2h8zm-7.4 4c-.3 0-.6-.3-.6-.6V87h8v.4c0 .3-.3.6-.6.6h-6.8zM95 68h-8V42h8v26zm-7-29h6v1h-6v-1zm-4 3h2v26h-2V42zm4 37h-1v-9h1v9zm7 0h-1v-9h1v9zm1-11V42h2v26h-2z"/></svg>