<svg xmlns="http://www.w3.org/2000/svg" viewBox="0 0 100 100"><path d="M40 8h-8c-.6 0-1 .4-1 1v3h-3c-.6 0-1 .4-1 1v26c0 .6.4 1 1 1h34c.6 0 1-.4 1-1V13c0-.6-.4-1-1-1H41V9c0-.6-.4-1-1-1zm-7 2h6v2h-6v-2zm-4 28V14h14v17c0 .6.4 1 1 1h17v6H29zm16-11.9c.9 1.7 2.2 3 3.9 3.9H45v-3.9zm8 3.9c-4.4 0-8-3.6-8-8s3.6-8 8-8 8 3.6 8 8-3.6 8-8 8zm8-3.9V30h-3.9c1.7-.9 3-2.2 3.9-3.9zm0-8.2c-.9-1.7-2.2-3-3.9-3.9H61v3.9zM48.9 14c-1.7.9-3 2.2-3.9 3.9V14h3.9z"/><path d="M53 17c-2.8 0-5 2.2-5 5s2.2 5 5 5 5-2.2 5-5-2.2-5-5-5zm0 8c-1.7 0-3-1.3-3-3s1.3-3 3-3 3 1.3 3 3-1.3 3-3 3zm-22 1h10V16H31v10zm1-9h8v8h-8v-8zm1 15c-1.1 0-2 .9-2 2s.9 2 2 2 2-.9 2-2-.9-2-2-2zm0 3c-.6 0-1-.4-1-1s.4-1 1-1 1 .4 1 1-.4 1-1 1zm40 5h3c0 2.2 1.8 4 4 4h4c2.2 0 4-1.8 4-4h3c.6 0 1-.4 1-1V21h2c.6 0 1-.4 1-1V1c0-.6-.4-1-1-1H70c-.6 0-1 .4-1 1v19c0 .6.4 1 1 1h2v18c0 .6.4 1 1 1zm14-2H77v-9c0-.6.4-1 1-1h8c.6 0 1 .4 1 1v9zm-3 4h-4c-1.1 0-2-.9-2-2h8c0 1.1-.9 2-2 2zm6-4h-2v-9c0-1.1-.9-2-2-2h-8c-1.1 0-2 .9-2 2v9h-2V21h16v17zm3-36v3H71V2h22zM71 6h22v13H71V6zm11 68c5.5 0 10-4.5 10-10s-4.5-10-10-10-10 4.5-10 10 4.5 10 10 10zm0-19c5 0 9 4 9 9s-4 9-9 9-9-4-9-9 4-9 9-9zm-26 3h10v-4H56v4zm1-3h8v2h-8v-2z"/><path d="M99 50h-8.5l-2.7-3.6c-.2-.3-.5-.4-.8-.4H77c-.3 0-.6.1-.8.4L73.5 50H67v-3c0-.6-.4-1-1-1H56c-.6 0-1 .4-1 1v3h-2c-.6 0-1 .4-1 1v9h-2.6l-5.2-5.7c-.2-.2-.4-.3-.7-.3h-11c-.3 0-.5.1-.7.3L26.6 60H18v-3c0-.6-.4-1-1-1H7c-.6 0-1 .4-1 1v3.1c-3.4.5-6 3.4-6 6.9v30c0 1.7 1.3 3 3 3h58c1.7 0 3-1.3 3-3V78h35c.6 0 1-.4 1-1V51c0-.6-.4-1-1-1zm-21.5-2h9l1.5 2H76l1.5-2zM57 48h8v2h-8v-2zm-24.1 8H43l3.7 4H29.3l3.6-4zM8 58h8v2H8v-2zm6 12H2v-3c0-.3 0-.7.1-1H14v4zM2 97V71h12v27H3c-.6 0-1-.4-1-1zm60 0c0 .6-.4 1-1 1H16V65c0-.6-.4-1-1-1H3c.9-1.2 2.3-2 4-2h50c2.8 0 5 2.2 5 5v30zm2-21v-9c0-3.9-3.1-7-7-7h-3v-8h20.8c-4.1 2.4-6.8 6.9-6.8 12s2.7 9.6 6.8 12H64zm18-24c6.6 0 12 5.4 12 12s-5.4 12-12 12-12-5.4-12-12 5.4-12 12-12zm16 24h-8.8c4.1-2.4 6.8-6.9 6.8-12s-2.7-9.6-6.8-12H98v24z"/><path d="M38 68c-6.6 0-12 5.4-12 12s5.4 12 12 12 12-5.4 12-12-5.4-12-12-12zm0 23c-6.1 0-11-4.9-11-11s4.9-11 11-11 11 4.9 11 11-4.9 11-11 11zM24 67c0-1.7-1.3-3-3-3s-3 1.3-3 3 1.3 3 3 3 3-1.3 3-3zm-3 2c-1.1 0-2-.9-2-2s.9-2 2-2 2 .9 2 2-.9 2-2 2z"/><path d="M55.3 74h-2.5c-2.4-5.9-8.1-10-14.8-10-8.8 0-16 7.2-16 16s7.2 16 16 16c6.7 0 12.4-4.1 14.8-10h2.5c2.6 0 4.7-2.1 4.7-4.7v-2.7c0-2.5-2.1-4.6-4.7-4.6zM38 94c-7.7 0-14-6.3-14-14s6.3-14 14-14 14 6.3 14 14-6.3 14-14 14zm20-12.7c0 1.5-1.2 2.7-2.7 2.7h-1.9c.3-1.3.5-2.6.5-4s-.2-2.7-.5-4h1.9c1.5 0 2.7 1.2 2.7 2.7v2.6zM20 27c.6 0 1-.4 1-1V10c0-.3-.1-.5-.3-.7l-4-4c-.2-.2-.4-.3-.7-.3H6c-.6 0-1 .4-1 1v20c0 .6.4 1 1 1h14zm-1-2H7v-4h12v4zM15.6 7l3.4 3.4V20H7v-4h3v-6H7V7h8.6zM7 11h2v4H7v-4z"/></svg>