<svg xmlns="http://www.w3.org/2000/svg" viewBox="0 0 100 100"><path d="M99 0H79c-.6 0-1 .4-1 1v4H10c-.6 0-1 .4-1 1v6H1c-.6 0-1 .4-1 1v72c0 .6.4 1 1 1h1v2H1c-.6 0-1 .4-1 1s.4 1 1 1h20c.6 0 1-.4 1-1s-.4-1-1-1h-1v-2h1c.6 0 1-.4 1-1V53h56v13h-4v-8c0-.6-.4-1-1-1H27c-.6 0-1 .4-1 1v15c0 .6.4 1 1 1h36v17c0 .6.4 1 1 1h2v2c0 .6.4 1 1 1h8c.6 0 1-.4 1-1v-2h6v2c0 .6.4 1 1 1h8c.6 0 1-.4 1-1v-2h2c.6 0 1-.4 1-1V78h4c.6 0 1-.4 1-1s-.4-1-1-1h-1v-2h1c.6 0 1-.4 1-1V1c0-.6-.4-1-1-1zm-3 2v53H82v-2h8c.6 0 1-.4 1-1V6c0-.6-.4-1-1-1h-8V2h14zM11 51v-5h78v5H11zM80 2h1v3h-1V2zm9 5v38H11V7h78zM4 14h5v38c0 .6.4 1 1 1h8v14H4V14zm14 74H4v-2h14v2zm2-4H2V14h1v54h16V53h1v31zm68-18c0-.6.4-1 1-1s1 .4 1 1h-2zm5 2v19H65V68h28zm-26.1-2H64c-.6 0-1 .4-1 1v.5c-.6-.5-1-1.2-1-2 0-1.4 1.1-2.5 2.5-2.5s2.5 1.1 2.5 2.5c0 .2 0 .3-.1.5zM28 72V59h28v13H28zm29 0V59h15v7h-4.1c0-.2.1-.3.1-.5 0-1.9-1.6-3.5-3.5-3.5S61 63.6 61 65.5c0 1.4.8 2.6 2 3.1V72h-6zm17 21h-6v-1h6v1zm16 0h-6v-1h6v1zm1-3H65v-2h28v2h-2zm5-14h-1v-2h1v2zm2-4h-3v-5c0-.6-.4-1-1-1h-3c0-1.1-.9-2-2-2s-2 .9-2 2h-7V53h1v3h16V2h1v70z"/><path d="M11 76c-1.1 0-2 .9-2 2s.9 2 2 2 2-.9 2-2-.9-2-2-2zm0 3c-.6 0-1-.4-1-1s.4-1 1-1 1 .4 1 1-.4 1-1 1zm39-16H33c-.6 0-1 .4-1 1v3c0 .6.4 1 1 1h17c.6 0 1-.4 1-1v-3c0-.6-.4-1-1-1zm0 4H33v-1h17v1zm-17-2v-1h17v1H33zm19.5-17h-5c-.3 0-.5.2-.5.5s.2.5.5.5h5c.3 0 .5-.2.5-.5s-.2-.5-.5-.5zm-1.6-16.4c.1 0 .3 0 .4-.1l14.1-14.1c.2-.2.2-.5 0-.7s-.5-.2-.7 0L50.6 30.8c-.2.2-.2.5 0 .7.1.1.2.1.3.1zm0 4.9c.1 0 .3 0 .4-.1l14.1-14.1c.2-.2.2-.5 0-.7s-.5-.2-.7 0l-14.1 14c-.2.2-.2.5 0 .7.1.2.2.2.3.2z"/></svg>