<svg viewBox="0 0 264 280" xmlns="http://www.w3.org/2000/svg" xmlns:xlink="http://www.w3.org/1999/xlink"><defs><circle id="a" cx="120" cy="120" r="120"/><path d="M12 160c0 66.274 53.726 120 120 120s120-53.726 120-120h12V0H0v160h12z" id="c"/><path d="M124 144.611V163h4c39.765 0 72 32.235 72 72v9H0v-9c0-39.765 32.235-72 72-72h4v-18.389c-17.237-8.189-29.628-24.924-31.695-44.73C38.48 99.058 34 94.052 34 88V74c0-5.946 4.325-10.882 10-11.834V56c0-30.928 25.072-56 56-56s56 25.072 56 56v6.166c5.675.952 10 5.888 10 11.834v14c0 6.052-4.48 11.058-10.305 11.881-2.067 19.806-14.458 36.541-31.695 44.73z" id="e"/></defs><g fill="none" fill-rule="evenodd"><g transform="translate(12 40)"><mask id="b" fill="#fff"><use xlink:href="#a"/></mask><use fill="#E6E6E6" xlink:href="#a"/><g mask="url(#b)" fill="#65C9FF"><path d="M0 0h240v240H0z"/></g></g><mask id="d" fill="#fff"><use xlink:href="#c"/></mask><g mask="url(#d)"><g transform="translate(32 36)"><mask id="f" fill="#fff"><use xlink:href="#e"/></mask><use fill="#D0C6AC" xlink:href="#e"/><g mask="url(#f)" fill="#FFDBB4"><path d="M-32 0h264v244H-32z"/></g><path d="M156 79v23c0 30.928-25.072 56-56 56s-56-25.072-56-56V79v15c0 30.928 25.072 56 56 56s56-25.072 56-56V79z" fill-opacity=".1" fill="#000" mask="url(#f)"/></g><g transform="translate(0 170)"><defs><path d="M165.624 29.268C202.76 32.138 232 63.18 232 101.052V110H32v-8.948c0-38.217 29.775-69.48 67.393-71.855A14.107 14.107 0 0 0 99 32.5C99 44.374 113.998 54 132.5 54c18.502 0 33.5-9.626 33.5-21.5 0-1.098-.128-2.178-.376-3.232z" id="g"/></defs><mask id="h" fill="#fff"><use xlink:href="#g"/></mask><use fill="#E6E6E6" xlink:href="#g"/><g mask="url(#h)" fill="#FF488E"><path d="M0 0h264v110H0z"/></g><g fill="#FFF" mask="url(#h)"><path d="M87.272 88.132c3.273-.559 5.73-3.554 5.18-6.788-.464-2.724-1.745-.343-2.976.853-1.335 1.298-2.45 2.574-4.536 2.054-3.607-.9-4.858-5.4-3.84-8.48a5.941 5.941 0 0 1 3.478-3.696c1.852-.746 3.204.09 4.748 1.094.289.187 1.73 1.37 1.994 1.25.462-.211.115-2.43.045-2.725-.338-1.421-1.266-2.575-2.617-3.238-3.333-1.635-7.514.489-9.64 3.055-4.884 5.897-.92 18.164 8.164 16.62m10.011-19.093c-.001.003 0 .001 0 0m-1.594 12.865c.503 3.474 2.977 6.5 6.952 6.357 4.278-.155 6.056-4.098 7.008-7.486.957-3.399 2.052-7.683.664-11.093-.42-1.032-.685-2.38-1.716-1.53-1.252 1.033-1.409 4.039-1.515 5.442-.2 2.647-.781 9.97-4.108 10.944-4.179 1.222-4.048-5.847-4-7.977.04-1.896.246-3.734-.342-5.584-.313-.985-.59-2.44-1.528-1.634-1.29 1.108-1.453 3.828-1.544 5.327-.144 2.405-.214 4.842.129 7.234m19.094 2.843c.188.412.624 1.402 1.02 1.679.944.66-.055.708.8-.059.813-.729 1.13-2.717 1.254-3.67.385-2.96-.12-6.108-.087-9.093 1.024 2.218 1.584 4.584 2.386 6.874.554 1.582 1.396 4.804 3.654 4.753 2.443-.055 2.57-3.145 2.894-4.819.461-2.37.97-4.721 1.676-7.037.092 3.91-1.427 10.995 2.108 13.92.014.013 1.432-4.15 1.467-4.406.223-1.691.083-3.444.107-5.148.051-3.597.718-8.003-.3-11.506-.328-1.134-.975-2.264-2.409-2.233-1.825.04-2.233 1.985-2.698 3.298-1.28 3.614-2.445 7.224-3.357 10.94-.548-1.68-5.339-16.421-8.789-10.901-.555.888-.315 2.218-.338 3.196-.044 1.879-.155 3.756-.196 5.635-.061 2.843-.41 5.907.808 8.577M139.02 71.71c.72-.135 5.735-1.727 5.523-.136-.223 1.675-4.633 3.309-5.816 3.876a10.629 10.629 0 0 0-.643-3.567l.936-.173m5.717-.64s-.027-.035 0 0m.122 8.341c2.272 1.22 1.287 3.417-.426 4.608-.649.45-6.53 1.802-6.513 1.663 0 .004 0 .005-.004.005.18-1.694-.257-5.018 1-6.02 1.304-1.04 4.5-.808 5.943-.256m.062-7.995c.009.022.001.002 0 0m-9.977 16.844c.224.551.86 1.912 1.566 1.945.86.04.794-1.043.929-1.71 3.441 1.721 8.498-.047 10.907-3.03 2.787-3.45 1.348-8.27-2.579-9.745 2.113-1.688 4.026-5.399 1.255-7.49-2.196-1.655-5.828-1.747-8.123-.302-2.735 1.723-3.85 5.833-4.09 9.006-.255 3.382-1.158 8.125.135 11.326m18.106-8.389c.074 2.07-.15 4.287.332 6.306.171.717.433 1.511.76 2.162.611 1.215.31 1.05 1.032.36 2.172-2.083 1.209-8.575 1.157-11.249-.041-2.078.064-4.28-.513-6.283-.162-.562-1.123-3.348-1.655-3.284-.816.098-1.376 3.93-1.423 4.693-.148 2.396.226 4.895.31 7.295m18.698.559c-1.582-.137-3.622.075-5.117.557.697-1.916 1.475-4.054 2.238-5.79.474-1.09.972-2.17 1.494-3.24 1.278 2.686 1.992 5.828 2.832 8.666-.48-.087-.962-.151-1.447-.193m5.44.725c-.727-2.78-1.579-5.532-2.426-8.28-.538-1.743-1.13-3.911-2.6-5.168-4.163-3.561-6.527 5.85-7.548 8.232-.985 2.296-2.216 4.634-2.85 7.049a9.478 9.478 0 0 0-.244 3.652c.205 1.519-.004 1.741 1.294.914 1-.636 1.414-1.792 2.227-2.562.144-.136.218-.668.39-.755.188-.096 1.504.253 1.815.274 2.17.151 4.712-.218 6.715-1.054.205.842 1.627 5.962 2.977 5.773.597-.083.965-3.064.992-3.537.087-1.553-.352-3.049-.742-4.538m9.114-13.723c-.264-1.203-.814-3.292-1.842-2.112-1.39 1.596-1.09 5.173-1.111 7.177-.015 1.451-1.552 12.062.556 11.883-.09 0 .845-1.668.98-1.922.815-1.524 1.131-2.97 1.329-4.722.365-3.237.783-7.111.088-10.304m-1.138 20.869c-2.24-2.728-6.311.658-5.041 3.374 1.729 3.7 7.331-.56 5.041-3.374m-13.266 4.244c-2.891-.738-6.297-.24-9.249-.152-3.081.092-6.16.264-9.24.357-6.568.198-13.124.092-19.692.038-12.454-.103-24.935.69-37.383.168-2.672-.112-5.545-.713-8.198-.209-.727.139-3.009.543-3.329 1.266-.336.76 1.402 1.555 2.331 1.955 2.422 1.044 5.329.858 7.9.964 2.93.12 5.887.058 8.819-.014 12.075-.297 24.089-1.343 36.18-1.165 6.976.103 13.937.038 20.912.001 3.32-.017 7 .526 10.273-.062.552-.1 3.763-.854 3.807-1.836.02-.453-2.806-1.228-3.13-1.311"/></g></g><g fill="#000"><path d="M118 150c0 5.372 6.158 9 14 9s14-3.628 14-9c0-1.105-.95-2-2-2-1.293 0-1.87.905-2 2-1.242 2.938-4.317 4.716-10 5-5.683-.284-8.758-2.062-10-5-.13-1.095-.707-2-2-2-1.05 0-2 .895-2 2z" fill-opacity=".6" fill-rule="nonzero"/><path d="M120 130c0 4.418 5.373 8 12 8s12-3.582 12-8" fill-opacity=".16"/><path d="M103.241 110.346a6 6 0 1 0 10.699 2.8 1.998 1.998 0 0 0-.125-.739 7.509 7.509 0 0 0-.144-.372 6.007 6.007 0 0 0-1.646-2.484c-2.126-2.234-5.519-3.551-9.027-3.551-4.834 0-8.991 2.649-10.838 6.447-.54 1.111.387 1.853 1.278 1.125 2.436-1.993 5.82-3.228 9.56-3.228.08 0 .162 0 .243.002zm58 0a6 6 0 1 0 10.699 2.8 1.998 1.998 0 0 0-.125-.739 7.509 7.509 0 0 0-.144-.372 6.007 6.007 0 0 0-1.646-2.484c-2.126-2.234-5.519-3.551-9.027-3.551-4.834 0-8.991 2.649-10.838 6.447-.54 1.111.387 1.853 1.278 1.125 2.436-1.993 5.82-3.228 9.56-3.228.08 0 .162 0 .243.002zm-54.007-7.924l-.911.402c-5.242 2.081-13.188 1.209-18.046-1.123-.567-.272-.18-1.153.402-1.108 14.919 1.151 24.963-8.146 28.375-14.44.101-.187.407-.208.482-.034 2.308 5.319-4.45 13.985-10.302 16.303zm49.532 0l.911.402c5.242 2.081 13.188 1.209 18.046-1.123.567-.272.18-1.153-.402-1.108-14.919 1.151-24.963-8.146-28.375-14.44-.101-.187-.407-.208-.482-.034-2.308 5.319 4.45 13.985 10.302 16.303z" fill-opacity=".6"/></g><defs><path id="i" d="M0 0h264v280H0z"/><path d="M162.831 71.618A56.73 56.73 0 0 1 163 76v38c0 22.34-13.08 41.623-32 50.611V183h4c1.524 0 2.038.047 3.539.14-14.913 27.356-18.715 50.434-1.067 64.403 1.698 1.203 2.924 1.786 3.135 1.885 2.373 1.118 4.837 2.34 7.467 2.955 4.623 1.08 9.933-.373 14.557-.953 2.112-.266 4.217-.43 6.346-.436 2.565-.009 5.211.084 7.142 1.697 1.884 1.574 1.644 7.198-3.875 9.833 4.1 1.855 9.012-2.453 10.688-5.177 1.466-2.385 2.594-4.968 3.214-7.605.772-3.283.822-6.725.218-10.014-1.258-6.848-4.176-13.432-6.163-20.122-.732-2.466-1.686-5.165-2.102-7.69-.113-.684-.247-3.215-.141-3.744.078-.393.059-.797 1.415-1.176 3.916-1.096 8.007-2.933 10.852-5.52 3.365-3.058 5.119-7.03 6.533-10.979 2.24-6.252 3.523-12.947 4.113-19.44.122-1.349.191-2.695.215-4.047.015-.817-.085-1.747.008-2.565.153-1.34-.054-.987 1.248-1.874 4.257-2.9 7.58-7.122 9.71-11.37 3.346-6.672 3.782-13.708 1.066-20.467-2.253-5.607-5.827-11.235-11.392-14.846-2.137-1.386-4.392-2.643-6.61-3.93-1.21-.7-4.048-1.615-4.906-2.517-.6-.63.355-3.792.476-4.858.528-4.648-.08-9.157-1.165-13.696-2.394-10.008-12.033-26.149-15.903-35.662-3.325-8.172-8.136-55.3-65.031-55.026C51.69.473 41.419 50.438 33.716 59.774c-8.365 10.138-16.809 29.402-11.113 47.262-5.504 6.922-18.058 17.008-21.218 27.09-1.982 6.325-1.897 13.37.644 19.507 1.437 3.471 3.496 6.618 5.911 9.64 2.117 2.646 4.468 5.15 6.518 7.837 1.237 1.622 1.568 2.02 1.102 4.018-.92 3.94-2.819 7.725-4.466 11.475-2.552 5.81-4.697 11.22-5.014 17.413-.302 5.896 1.324 22.673 18.261 32.56a62.778 62.778 0 0 0 6.042 3.11c-1.09-3.396.146-15.524 2.343-20.032.56 1.55 1.511 3.043 2.536 4.398 1.6 2.115 5.374 7.409 10.147 7.655-1.937-2.984-4.02-4.998-4.624-8.598 3.977 1.96 9.634 3.747 14.262 3.582 3.404-.12 8.424-1.82 10.953-3.943-8.372 1.327-16.321-1.433-19.518-7.329-.667-1.23-1.174-2.52-1.468-3.86-.417-1.9-1.076-4.944-.191-6.697.215-.426.566-.86.984-1.29a30.968 30.968 0 0 1-.197-.235c5.694-4.787 12.84-12.404 16.665-17.97.07-.122.141-.244.21-.367h.04l.085-.126A72.215 72.215 0 0 1 79 183h4v-18.389C64.08 155.623 51 136.339 51 114V76c0-2.463.159-4.888.467-7.267 3.942-1.263 7.898-2.455 11.932-3.528 4.456-1.186 14.399-3.114 18.29-4.01l2.736-2.98 1.063 1.955c2.158-.166 14.078-1.957 14.078-1.957l1.33-3.223c1.717 1.763 2.939 2.679 2.939 2.679 2.556-.209 13.653-.458 16.285-.426 0 0 7.34.258 9.12.328l1.668-.638.548 1.077c1.454.591 10.243 3.59 11.978 4.128l2.547-.906c1.12 2.694 3.94 2.354 6.276 4.481 2.503 2.279 7.226 4.024 10.574 5.905z" id="k"/></defs><mask id="j" fill="#fff"><use xlink:href="#i"/></mask><g mask="url(#j)"><path d="M99.9 42.465c-9.798 6.007-18.514 13.862-24.313 22.895-2.762 4.303-5.034 8.84-7.15 13.398a136.14 136.14 0 0 0-2.961 6.931c-.587 1.47-1.487 3.056-.64 4.599.517-.302.713-.194.388.347 2.692.734 6.434-1.335 8.767-2.099 4.763-1.56 9.53-3.033 14.408-4.331 4.456-1.186 14.399-3.114 18.29-4.01l2.736-2.98 1.063 1.955c2.158-.166 14.078-1.957 14.078-1.957l1.33-3.223c1.717 1.763 2.939 2.679 2.939 2.679 2.556-.209 13.653-.458 16.285-.426 0 0 7.34.258 9.12.328l1.668-.638.548 1.077c1.454.591 10.243 3.59 11.978 4.128l2.547-.906c1.12 2.694 3.94 2.354 6.276 4.481 3.092 2.814 9.569 4.816 12.66 7.263 1.108.876 2.143 1.792 3.183 2.726 1.156 1.037.985 1.188 1.36 2.378.113.356 1.256 2.199 1.743 2.35 1.733.536-10.154-30.486-13.417-34.453-3.368-4.094-25.211-31.654-54.174-30.752" fill-opacity=".16" fill="#000"/><g transform="translate(25 16)"><mask id="l" fill="#fff"><use xlink:href="#k"/></mask><use fill="#361A0A" xlink:href="#k"/><g mask="url(#l)" fill="#4A312C"><path d="M0 0h264v280H0z"/></g><path d="M62.68 184.462c7.075-9.707-.531-36.675-6.552-46.661 16.837-7.663 50.086-6.248 99.746 4.247-4.795 8.852-6.75 16.756-5.868 23.71-4.537 5.575-8.286 11.37-11.246 17.383l-34.871 8.606c-22.036 2.653-35.773.225-41.21-7.285z" fill-opacity=".24" fill="#000" mask="url(#l)"/></g><path d="M78.04 170.094c-.059-.201-.205-.427-.405-.665.136.221.272.442.405.665zm-22.63-49.719a88.6 88.6 0 0 0 4.456 18.002c2.062 5.721 4.42 11.46 7.813 16.69 3.161 4.876 6.924 9.425 9.956 14.362-.797-.948-2.472-2.1-3.114-2.778a49.966 49.966 0 0 1-2.984-3.458c-1.923-2.443-3.637-5-5.294-7.583-3.252-5.073-5.69-10.576-7.803-16.08-4.15-10.807-8.313-23.913-4.666-35.33-.282.735.459 2.488.575 3.297.204 1.414.386 2.837.478 4.26.185 2.883.184 5.749.583 8.618zm12.445 44.666c-1.358-1.731-3.881-3.097-5.442-4.762-1.415-1.51-2.511-3.2-3.506-4.94-2.255-3.94-3.737-7.964-4.217-12.37.11.523.918 1.427 1.173 1.856a85.236 85.236 0 0 1 1.788 3.124c1.097 2.04 2.013 4.15 3.122 6.187 2.038 3.74 4.63 7.36 7.082 10.905zm4.677 18.458c1.115 1.962 2.04 3.966 2.625 6.102a42.27 42.27 0 0 1 .77 3.413c.07.369.082 1.696.258 2.27-2.215-4.291-3.905-8.835-6.543-12.942-2.604-4.054-5.947-7.781-9.446-11.281-3.695-3.695-7.41-7.182-9.392-11.847-1.725-4.06-2.391-8.218-1.99-12.556.002 1.911 1.757 4.622 2.363 6.469.83 2.527 1.489 5.105 2.737 7.507 2.126 4.089 5.959 7.243 9.165 10.688 3.553 3.816 6.946 7.762 9.453 12.177zm-14.303-9.32a21.991 21.991 0 0 1 2.806 3.275c.898 1.285 1.556 2.636 2.145 4.05.507 1.217.73 3.482 1.527 4.498-2.578-3.146-5.233-6.117-7.011-9.69-.607-1.222-1.548-3.023-2.243-4.495.231.593 2.253 1.86 2.776 2.362zm-10.326 6.349c2.838 4.25 6.548 8.081 8.974 12.528 2.83 5.187 4.075 10.807 4.326 16.54.119 2.711.112 5.465-.253 8.168-.196 1.448-.51 2.886-.869 4.312-.136.54-.84 1.926-.977 2.77-.29-10.54 1.454-21.082-4.027-30.903-2.596-4.65-6.586-8.616-9.679-13.018-2.782-3.959-5.498-7.841-7.713-12.074 1.356 1.716 3.8 3.065 5.316 4.769 1.899 2.134 3.348 4.58 4.902 6.908zm11.2 44.319c-.032.204-.033.377.014.5l-.013-.5zm-9.543-22.353c.001.496.816 1.518 1.04 2.035.52 1.209.946 2.478 1.157 3.76.418 2.529-.13 5.14-1.067 7.561-1.9 4.907-4.874 9.253-8.613 13.3 1.335-1.748 1.867-4.589 2.806-6.538.965-2 2-3.97 2.85-6.011 1.92-4.605 1.75-9.311 1.827-14.107zM40.917 221.2c.401-.548.193-3.183.405-3.872.392-1.273 1.07-2.502 1.849-3.635-.416.699.198 2.466-.005 3.373-.332 1.489-1.17 2.932-2.249 4.134zm57.69-178.453a.934.934 0 0 0-.239.297l.24-.297zm-14.76 21.584c1.42-1.246 2.177-4.19 3.156-5.78 1.125-1.825 2.418-3.579 3.645-5.356 2.432-3.524 4.726-6.984 7.72-10.19-.622.934-1.173 3.768-1.514 4.513a34.612 34.612 0 0 1-3.221 5.605c-2.86 4.044-5.93 7.803-9.786 11.208zm-.535-10.21c.75-1.327 1.894-2.448 3.18-3.414-.573.503-.831 2.575-1.225 3.275-.795 1.412-1.953 2.63-3.196 3.772.664-.582.772-2.803 1.24-3.633zm119.194 98.006l-.041.31c-.002-1.525-.68-3.2-.76-4.769-.113-2.19.202-4.315 1.082-6.392 1.74-4.101 5.003-7.207 9.164-9.638-1.145.674-2.267 3.213-3.001 4.268-1.103 1.586-2.282 3.187-3.214 4.85-1.943 3.469-2.506 7.618-3.23 11.371zm-1.508-21.646a22.94 22.94 0 0 1-.989 3.626c-.474 1.279-1.093 2.523-1.783 3.728-.43.75-1.98 2.327-1.978 3.157-.083-4.898 1.728-9.335 5.172-13.257-.378.657-.283 2.03-.422 2.746zm-.801 35.238c3.656-.517 7.105 1.261 9.421 3.551 1.238 1.224 2.338 2.63 3.065 4.133.547 1.13.546 2.983 1.28 3.92-1.797-2.419-4.076-4.373-6.324-6.464-1.564-1.455-4.688-5.181-7.442-5.14zm-.778 10.377c-.192-.065-1.934-.558-2.337-.32.597-.267 1.33-.592 1.987-.679 4.284-.569 9.492 3.141 10.067 6.721-.478-1.226-3.025-2.24-4.176-2.85-1.823-.967-3.564-2.137-5.541-2.872zm1.809 7.811c.742.182 2.32 1.176 3.047 1.165-2.929.07-5.572-.255-8.391-.914.152.041 1.759-.456 1.811-.463 1.215-.172 2.357-.076 3.533.212zm-11.345 13.857c4.288-.242 9.336.384 13.431 1.417a22.338 22.338 0 0 1 5.692 2.295c1.414.814 3.93 1.932 4.876 3.137-3.74-6.452-11.85-9.803-20.16-8.14-1.107.222-2.808 1.276-3.84 1.291zm-.96 12.433c2.688-.965 5.661-1.894 8.583-2.029 2.771-.127 5.845.29 8.41 1.173-.883-.24-2.993.332-3.92.437-1.297.147-2.596.299-3.896.418a51.749 51.749 0 0 1-4.801.222c-1.14-.002-3.32-.54-4.376-.221zM178.46 227.41c.253 3.972 2.552 7.434 5.931 10.08 3.583 2.805 8.379 4.082 10.98 7.829 1.267 1.825 1.943 3.95 1.834 6.098-.056 1.106-.334 2.218-.635 3.294-.197.708-.902 1.868-.901 2.559.031-3.887.084-8.412-2.636-11.673-2.731-3.274-7.493-4.427-10.829-7.115-3.278-2.642-5.765-6.094-6.325-9.985-.452-3.144-.23-8.626 3.03-10.76-.662.39-.53 2.374-.547 2.931a73.85 73.85 0 0 0 .098 6.742zm-2.453 15.262c.396.52 2.57 1.151 3.208 1.51 1.456.817 2.865 1.746 4.02 2.877 2.317 2.266 3.81 5.445 3.918 8.494 0-.72-1.646-2.457-2.109-3.073-.768-1.022-1.635-1.969-2.518-2.917-2.154-2.31-4.39-4.564-6.52-6.891zm52.162-88.882c1.204 1.05 2.01 2.357 2.675 3.709 1.53 3.12 1.815 6.717.589 10 .203-.704-.401-2.184-.571-2.898-.373-1.563-.955-3.04-1.563-4.542-1.18-2.916-2.134-5.648-4.184-8.202.53.668 2.328 1.3 3.054 1.933zM170.51 41.983c0 .332.917 1.293 1.123 1.654.517.902.924 1.849 1.064 2.855.158 1.142-.035 2.259-.381 3.369-.206.66-1.184 1.934-1.184 2.528-.16-3.498-.933-6.86-.622-10.406zm7.637 6.822c.165 1.243-.24 2.644-.964 3.742.132-.31-.454-2.383-.473-2.762-.059-1.173.07-2.38.146-3.552.001.64 1.183 1.763 1.291 2.572zm-60.77 1.568a34.964 34.964 0 0 1-4.15 4.243c-1.023.89-2.984 1.89-3.764 2.91 3.501-5.711 7.546-10.638 12.302-15.63-.716.92-.903 2.916-1.428 3.993-.774 1.587-1.81 3.076-2.96 4.484zm5.898 2.479c.57-.336 1.104-1.993 1.538-2.55a16.914 16.914 0 0 1 2.578-2.63c-.205.22-.602 2.044-.825 2.402-.723 1.16-2 2.107-3.29 2.778z" fill-opacity=".6" fill="#FFF"/><g transform="translate(61 85)"><defs><path d="M80.465 16.394C84.38 8.46 92.553 3 102 3c8.92 0 16.703 4.866 20.84 12.088a2.52 2.52 0 0 1 .66-.088h8a2.5 2.5 0 1 1 0 5h-6.537A23.998 23.998 0 0 1 126 27c0 13.255-10.745 24-24 24S78 40.255 78 27c0-1.422.124-2.815.36-4.169C78.277 18.455 74.915 15 70.863 15c-3.736 0-6.887 2.94-7.42 6.83.365 1.665.558 3.395.558 5.17 0 13.255-10.745 24-24 24S16 40.255 16 27c0-2.435.363-4.785 1.037-7H10.5a2.5 2.5 0 1 1 0-5h8c.228 0 .45.03.66.088C23.297 7.866 31.08 3 40 3c9.352 0 17.455 5.35 21.416 13.155C63.493 13.039 66.949 11 70.862 11c4.013 0 7.545 2.144 9.603 5.394zM40 47c11.046 0 20-8.954 20-20S51.046 7 40 7s-20 8.954-20 20 8.954 20 20 20zm62 0c11.046 0 20-8.954 20-20s-8.954-20-20-20-20 8.954-20 20 8.954 20 20 20z" id="n"/><filter x="-.8%" y="-2.1%" width="101.6%" height="108.3%" filterUnits="objectBoundingBox" id="m"><feOffset dy="2" in="SourceAlpha" result="shadowOffsetOuter1"/><feColorMatrix values="0 0 0 0 0 0 0 0 0 0 0 0 0 0 0 0 0 0 0.1 0" in="shadowOffsetOuter1"/></filter></defs><use fill="#000" filter="url(#m)" xlink:href="#n"/><use fill="#252C2F" xlink:href="#n"/></g></g></g></g></svg>