<svg viewBox="0 0 264 280" xmlns="http://www.w3.org/2000/svg" xmlns:xlink="http://www.w3.org/1999/xlink"><defs><circle id="a" cx="120" cy="120" r="120"/><path d="M12 160c0 66.274 53.726 120 120 120s120-53.726 120-120h12V0H0v160h12z" id="c"/><path d="M124 144.611V163h4c39.765 0 72 32.235 72 72v9H0v-9c0-39.765 32.235-72 72-72h4v-18.389c-17.237-8.189-29.628-24.924-31.695-44.73C38.48 99.058 34 94.052 34 88V74c0-5.946 4.325-10.882 10-11.834V56c0-30.928 25.072-56 56-56s56 25.072 56 56v6.166c5.675.952 10 5.888 10 11.834v14c0 6.052-4.48 11.058-10.305 11.881-2.067 19.806-14.458 36.541-31.695 44.73z" id="e"/></defs><g fill="none" fill-rule="evenodd"><g transform="translate(12 40)"><mask id="b" fill="#fff"><use xlink:href="#a"/></mask><use fill="#E6E6E6" xlink:href="#a"/><g mask="url(#b)" fill="#65C9FF"><path d="M0 0h240v240H0z"/></g></g><mask id="d" fill="#fff"><use xlink:href="#c"/></mask><g mask="url(#d)"><g transform="translate(32 36)"><mask id="f" fill="#fff"><use xlink:href="#e"/></mask><use fill="#D0C6AC" xlink:href="#e"/><g mask="url(#f)" fill="#F8D25C"><path d="M-32 0h264v244H-32z"/></g><path d="M156 79v23c0 30.928-25.072 56-56 56s-56-25.072-56-56V79v15c0 30.928 25.072 56 56 56s56-25.072 56-56V79z" fill-opacity=".1" fill="#000" mask="url(#f)"/></g><g transform="translate(0 170)"><defs><path d="M171.32 29.936C205.706 35.366 232 65.14 232 101.052V110H32v-8.948c0-35.914 26.294-65.686 60.682-71.116a23.896 23.896 0 0 0 7.554 13.603l29.085 26.229a4 4 0 0 0 5.358 0l29.085-26.229a24 24 0 0 0 1.234-1.196 23.888 23.888 0 0 0 6.322-12.407z" id="g"/></defs><mask id="h" fill="#fff"><use xlink:href="#g"/></mask><use fill="#E6E6E6" xlink:href="#g"/><g mask="url(#h)" fill="#B1E2FF"><path d="M0 0h264v110H0z"/></g></g><g fill="#000"><g transform="translate(78 134)"><path d="M44.19 16.106c-.172-5.11-4.398-9.309-9.896-10.106 3.366 1.959 5.686 5.495 5.686 9.677 0 5.668-5.473 10.568-11.803 10.568H28a13 13 0 0 0 4.392.755c5.322 0 9.821-3.153 11.294-7.486 2.475 2.156 6.177 3.525 10.314 3.525 4.137 0 7.84-1.37 10.314-3.525C65.787 23.847 70.286 27 75.608 27c1.552 0 3.034-.268 4.392-.756l-.177.001c-6.33 0-11.803-4.9-11.803-10.568 0-4.182 2.32-7.718 5.686-9.677-5.498.797-9.724 4.996-9.897 10.106-2.564 1.736-6.014 2.8-9.809 2.8-3.795 0-7.245-1.064-9.81-2.8z" opacity=".6" fill-opacity=".6"/><circle fill-opacity=".2" fill="#FF4646" cx="17" cy="15" r="9"/><circle fill-opacity=".2" fill="#FF4646" cx="91" cy="15" r="9"/></g><path d="M120 130c0 4.418 5.373 8 12 8s12-3.582 12-8" fill-opacity=".16"/><g transform="translate(76 90)"><defs><path d="M14 14.048c9.61 0 14 4.451 14-2.486C28 4.624 21.732 0 14 0S0 4.624 0 11.562c0 6.937 4.39 2.486 14 2.486z" id="i"/><path d="M14 14.048c9.61 0 14 4.451 14-2.486C28 4.624 21.732 0 14 0S0 4.624 0 11.562c0 6.937 4.39 2.486 14 2.486z" id="k"/></defs><g transform="translate(16 13)"><mask id="j" fill="#fff"><use xlink:href="#i"/></mask><use fill="#FFF" xlink:href="#i"/><circle fill-opacity=".7" mask="url(#j)" cx="14" cy="10" r="6"/></g><g transform="translate(68 13)"><mask id="l" fill="#fff"><use xlink:href="#k"/></mask><use fill="#FFF" xlink:href="#k"/><circle fill-opacity=".7" mask="url(#l)" cx="14" cy="10" r="6"/></g></g><path d="M98.766 83.578l.911-.402c5.242-2.081 13.188-1.209 18.046 1.123.567.272.18 1.153-.402 1.108-14.919-1.151-24.963 8.146-28.375 14.44-.101.187-.407.208-.482.034-2.308-5.319 4.45-13.985 10.302-16.303zm66.468 0l-.911-.402c-5.242-2.081-13.188-1.209-18.046 1.123-.567.272-.18 1.153.402 1.108 14.919-1.151 24.963 8.146 28.375 14.44.101.187.407.208.482.034 2.308-5.319-4.45-13.985-10.302-16.303z" fill-opacity=".6"/></g><defs><path id="m" d="M0 0h264v280H0z"/><path d="M48.725 89.219A12 12 0 0 0 42 100v13c0 6.019 4.43 11.002 10.209 11.867 1.743 20.248 14.26 37.416 31.791 45.744V189h-4c-1.586 0-3.16.051-4.721.152a72.113 72.113 0 0 1-13.689-9.103A48.013 48.013 0 0 1 48 182c-26.51 0-48-21.49-48-48 0-14.41 6.349-27.335 16.402-36.134A43.802 43.802 0 0 1 8 72c0-21.84 15.911-39.962 36.774-43.41C51.019 11.89 67.12 0 86 0a43.798 43.798 0 0 1 22 5.886A43.798 43.798 0 0 1 130 0c18.88 0 34.981 11.89 41.226 28.59C192.09 32.039 208 50.16 208 72a43.802 43.802 0 0 1-8.402 25.866C209.65 106.665 216 119.591 216 134c0 26.51-21.49 48-48 48-4.72 0-9.281-.681-13.59-1.951a72.113 72.113 0 0 1-13.689 9.103A73.084 73.084 0 0 0 136 189h-4v-18.389c17.53-8.328 30.048-25.496 31.791-45.744C169.57 124.002 174 119.02 174 113v-13a11.99 11.99 0 0 0-5.476-10.073 24.329 24.329 0 0 1-3.235-1.47c-.42-.12-.85-.218-1.289-.291v-.453c-8.68-5.303-17.235-16.538-22.55-30.914C131.312 58.835 119.547 60 107 60c-11.961 0-23.212-1.059-33.02-2.921C68.756 71.064 60.465 82.043 52 87.423v.743a11.912 11.912 0 0 0-3.275 1.053z" id="o"/></defs><mask id="n" fill="#fff"><use xlink:href="#m"/></mask><g mask="url(#n)"><path d="M104.985 27.764C113.013 26.627 121.796 26 131 26c10.358 0 20.183.794 29 2.216C182.451 38.75 198 61.56 198 88v17.044c-11.538-.371-25.169-14.28-32.55-34.245C155.312 72.835 143.547 74 131 74c-11.961 0-23.212-1.059-33.02-2.921-7.304 19.548-20.597 33.223-31.98 33.943V88c0-26.825 16.004-49.913 38.985-60.236z" fill-opacity=".16" fill="#000"/><g transform="translate(24 10)"><mask id="p" fill="#fff"><use xlink:href="#o"/></mask><use fill="#314756" xlink:href="#o"/><g mask="url(#p)" fill="#F59797"><path d="M0 0h264v280H0z"/></g></g></g></g></g></svg>