<svg xmlns="http://www.w3.org/2000/svg" viewBox="0 0 362.302 127.659"><path d="M105.173 123.152H22.529c-9.9 0-18-8.1-18-18V22.508c0-9.9 8.1-18 18-18h82.644c9.9 0 18 8.1 18 18v82.644c0 9.9-8.1 18-18 18z" fill="none" stroke="#1f1f1f" stroke-width="9" stroke-miterlimit="10"/><path d="M162.172 32.442h8.7v60.104h28.801v7.3h-37.501V32.442zm89.301 42.803c0 17.9-12.401 25.702-24.102 25.702-13.101 0-23.202-9.6-23.202-24.902 0-16.2 10.6-25.702 24.002-25.702 13.9 0 23.302 10.1 23.302 24.902zm-38.402.5c0 10.6 6.1 18.601 14.7 18.601 8.4 0 14.701-7.9 14.701-18.8 0-8.202-4.1-18.602-14.501-18.602s-14.9 9.6-14.9 18.8zm91.202-24.301c-.2 3.5-.4 7.4-.4 13.3v28.102c0 11.1-2.2 17.901-6.901 22.102-4.7 4.4-11.5 5.8-17.6 5.8-5.801 0-12.202-1.4-16.102-4l2.2-6.7c3.2 2 8.201 3.8 14.201 3.8 9.001 0 15.6-4.701 15.6-16.902v-5.4h-.198c-2.7 4.5-7.9 8.1-15.402 8.1-12 0-20.601-10.2-20.601-23.6 0-16.402 10.7-25.703 21.801-25.703 8.4 0 13.001 4.4 15.101 8.4h.2l.4-7.3h7.7zm-9.1 19.1c0-1.5-.1-2.8-.5-4-1.6-5.1-5.901-9.3-12.302-9.3-8.4 0-14.4 7.1-14.4 18.301 0 9.5 4.8 17.4 14.3 17.4 5.401 0 10.302-3.4 12.201-9 .5-1.5.7-3.2.7-4.7v-8.7zm67.099 4.701c0 17.9-12.402 25.702-24.102 25.702-13.101 0-23.202-9.6-23.202-24.902 0-16.2 10.6-25.702 24.002-25.702 13.9 0 23.302 10.1 23.302 24.902zm-38.403.5c0 10.6 6.1 18.601 14.7 18.601 8.401 0 14.702-7.9 14.702-18.8 0-8.202-4.1-18.602-14.501-18.602s-14.9 9.6-14.9 18.8z" fill="#1f1f1f"/></svg>