<svg xmlns="http://www.w3.org/2000/svg" width="67" height="25" viewBox="0 0 361 136"><path fill-rule="evenodd" clip-rule="evenodd" fill="#EC2127" d="M338.787 54.749c0-3.837 2.975-6.942 6.607-6.942 3.652 0 6.596 3.105 6.596 6.942 0 3.843-2.943 6.948-6.596 6.948-3.632 0-6.607-3.105-6.607-6.948zm6.608 5.303c2.776 0 5.042-2.382 5.042-5.303 0-2.906-2.266-5.267-5.042-5.267-2.765 0-5.042 2.361-5.042 5.267 0 2.921 2.277 5.303 5.042 5.303zm-.899-2.26h-1.353v-6.116h2.453c.499 0 1.059.03 1.488.337.469.345.739.924.739 1.537 0 .678-.385 1.312-.998 1.542l1.059 2.7h-1.504l-.895-2.397h-.99v2.397h.001zm0-3.437h.754c.277 0 .598.009.83-.127.229-.149.331-.446.331-.708 0-.23-.133-.507-.331-.615-.202-.137-.609-.106-.846-.106h-.738v1.556zM244.322 8.583l-1.81 11.773c-3.926-2.09-6.813-2.909-9.897-2.909-8.229 0-14.049 8.365-14.049 20.308 0 8.249 3.907 13.219 10.332 13.219 2.727 0 5.724-.876 9.391-2.797l-1.931 12.389c-4.056 1.167-6.702 1.582-9.769 1.582-11.92 0-19.334-8.991-19.334-23.423 0-19.413 10.244-32.969 24.898-32.969 1.893 0 3.584.185 4.958.583l4.556 1.194c1.356.537 1.661.619 2.655 1.05zm-36.689 8.069a6.076 6.076 0 0 0-1.131-.114c-3.642 0-5.701 1.927-9.083 7.185l.982-6.707h-10.013L181.6 61.149h11.108c3.972-26.974 4.988-31.632 10.313-31.632.324 0 .354 0 .808.045.982-5.318 2.327-9.228 4.182-12.794l-.378-.116zm-66.18 43.958c-3.005 1-5.38 1.455-7.931 1.455-5.642 0-8.723-3.437-8.723-9.708 0-1.23.092-2.557.315-3.957l.684-4.303.507-3.515 4.796-30.114h10.989l-1.26 6.548h5.656l-1.553 10.728h-5.642l-2.92 18.419c-.1.813-.185 1.413-.185 1.828 0 2.26 1.153 3.27 3.766 3.27 1.275 0 2.236-.133 2.975-.412l-1.474 9.761zM97.878 30.972c0 5.57 2.566 9.422 8.377 12.301 4.45 2.213 5.157 2.858 5.157 4.867 0 2.742-1.975 4.012-6.325 4.012-3.281 0-6.348-.548-9.883-1.767l-1.529 10.18.5.106 2.029.43c.653.139 1.614.263 2.882.4 2.636.246 4.657.364 6.087.364 11.596 0 16.961-4.682 16.961-14.734 0-6.04-2.236-9.612-7.762-12.286-4.611-2.197-5.134-2.715-5.134-4.764 0-2.394 1.829-3.624 5.38-3.624 2.166 0 5.103.257 7.907.657l1.575-10.191c-2.882-.491-7.162-.87-9.698-.87-12.304 0-16.57 6.773-16.524 14.919zM332.37 61.149h-10.462l.549-4.324c-3.047 3.416-6.174 4.907-10.214 4.907-8.085 0-13.383-7.285-13.383-18.32 0-14.679 8.233-27.073 18.01-27.073 4.296 0 7.544 1.86 10.603 6.042l2.406-15.504h10.896l-8.405 54.272zm-16.315-10.391c5.165 0 8.775-6.133 8.775-14.868 0-5.609-2.061-8.664-5.881-8.664-5.008 0-8.568 6.158-8.568 14.843 0 5.779 1.916 8.689 5.674 8.689zm-139.588 9.464c-3.782 1.188-7.438 1.788-11.358 1.772-12.327 0-18.768-6.784-18.768-19.755 0-15.167 8.192-26.331 19.329-26.331 9.083 0 14.917 6.257 14.917 16.063 0 3.247-.393 6.413-1.377 10.886h-21.98c-.092.672-.106.979-.106 1.369 0 5.158 3.288 7.756 9.721 7.756 3.943 0 7.493-.855 11.467-2.807l-1.845 11.047zm-6.202-26.28c.063-.922.078-1.674.078-2.233 0-3.607-1.946-5.713-5.234-5.713-3.506 0-6.018 2.813-7.048 7.916l12.204.03zM53.497 61.149H42.453l6.325-41.705-14.133 41.705h-7.569l-.915-41.46-6.663 41.46H9.154l8.63-54.273H33.7l.438 33.584L44.881 6.876h17.177l-8.561 54.273zM81.955 41.49c-1.169-.139-1.683-.19-2.475-.19-6.263 0-9.437 2.279-9.437 6.737 0 2.748 1.56 4.499 3.973 4.499 4.496 0 7.755-4.499 7.939-11.046zm8.039 19.659H80.84l.2-4.582c-2.79 3.654-6.517 5.349-11.582 5.349-6.01 0-10.113-4.918-10.113-12.024 0-10.774 7.17-17.029 19.428-17.029 1.252 0 2.851.097 4.496.327.345-1.46.438-2.09.438-2.864 0-2.915-1.921-4.021-7.102-4.021-3.127 0-6.717.476-9.191 1.261l-1.537.445-.968.286 1.521-9.898c5.519-1.715 9.153-2.376 13.249-2.376 9.499 0 14.533 4.482 14.533 12.94 0 2.197-.161 3.827-.914 8.755l-2.313 15.637-.377 2.824-.284 2.249-.192 1.537-.138 1.184zM263.363 41.49c-1.15-.139-1.684-.19-2.456-.19-6.288 0-9.472 2.279-9.472 6.737 0 2.748 1.577 4.499 3.991 4.499 4.517 0 7.739-4.499 7.937-11.046zm8.047 19.659h-9.166l.213-4.582c-2.788 3.654-6.523 5.349-11.581 5.349-6.01 0-10.13-4.918-10.13-12.024 0-10.774 7.163-17.029 19.445-17.029 1.245 0 2.859.097 4.493.327.339-1.46.438-2.09.438-2.864 0-2.915-1.92-4.021-7.099-4.021-3.146 0-6.726.476-9.179 1.261l-1.572.445-.956.286 1.538-9.898c5.526-1.715 9.152-2.376 13.219-2.376 9.514 0 14.548 4.482 14.548 12.94 0 2.197-.19 3.827-.906 8.755l-2.331 15.637-.342 2.824-.309 2.249-.202 1.537-.121 1.184zm30.878-44.497a5.515 5.515 0 0 0-1.112-.114c-3.629 0-5.704 1.927-9.102 7.185l.986-6.707h-10l-6.76 44.133h11.07c3.976-26.974 5.02-31.632 10.309-31.632.343 0 .32-.031.773.045 1.002-5.318 2.354-9.228 4.212-12.794l-.376-.116z"/><path d="M255.903 103.951c0 10.005-3.097 15.896-7.979 15.896-3.564.11-5.725-3.862-5.725-9.803 0-7.026 3.157-14.99 8.223-14.99 4.072.001 5.481 4.316 5.481 8.897zm10.872.184c0-11.121-5.495-19.777-15.823-19.777-11.89 0-19.59 10.526-19.59 26.022 0 11.094 4.551 20.165 15.808 20.165 11.36 0 19.605-8.043 19.605-26.41zm-31.86-27.584l-1.69 11.76c-3.675-2.075-6.349-2.936-9.239-2.936-7.724 0-13.119 8.401-13.119 20.344 0 8.245 3.613 13.233 9.631 13.233 2.566 0 5.374-.876 8.782-2.799l-1.79 12.381c-3.82 1.177-6.314 1.58-9.151 1.58-11.128 0-18.06-8.995-18.06-23.429 0-19.422 9.567-32.976 23.27-32.976 1.774 0 3.344.225 4.642.583l4.228 1.2c1.305.518 1.575.609 2.496 1.059zm-68.354 8.081a4.047 4.047 0 0 0-1.061-.122c-3.352 0-5.318 1.935-8.46 7.175l.914-6.695h-9.347l-6.31 44.138h10.321c3.713-27.001 4.695-31.647 9.646-31.647.292 0 .322 0 .753.05.931-5.339 2.184-9.25 3.92-12.823l-.376-.076zm134.829 44.024h-9.753l.502-4.308c-2.837 3.397-5.788 4.901-9.563 4.901-7.521 0-12.487-7.297-12.487-18.329 0-14.655 7.708-27.085 16.821-27.085 4.021 0 7.072 1.9 9.891 6.082l2.277-15.519h10.16l-7.848 54.258zm-15.26-10.382c4.862 0 8.214-6.128 8.214-14.871 0-5.625-1.915-8.645-5.465-8.645-4.695 0-8.031 6.135-8.031 14.848 0 5.751 1.79 8.668 5.282 8.668zm-216.364 10.2c-3.511 1.211-6.932 1.797-10.574 1.797-11.528 0-17.545-6.798-17.545-19.765 0-15.146 7.654-26.319 18.044-26.319 8.508 0 13.933 6.246 13.933 16.052 0 3.241-.369 6.417-1.252 10.892H51.798c-.062.659-.085.986-.085 1.371 0 5.146 3.082 7.742 9.069 7.742 3.689 0 7.024-.86 10.721-2.795l-1.737 11.025zm-5.772-26.259c.047-.933.077-1.676.077-2.243 0-3.599-1.813-5.705-4.88-5.705-3.297 0-5.642 2.833-6.586 7.902l11.389.046zm128.562 26.259c-3.522 1.211-6.95 1.797-10.579 1.797-11.551 0-17.56-6.798-17.56-19.765 0-15.146 7.662-26.319 18.044-26.319 8.51 0 13.952 6.246 13.952 16.052 0 3.241-.385 6.417-1.299 10.892h-20.529c-.063.659-.101.986-.101 1.371 0 5.146 3.075 7.742 9.061 7.742 3.69 0 7.034-.86 10.732-2.795l-1.721 11.025zm-5.804-26.259c.068-.933.106-1.676.106-2.243 0-3.599-1.828-5.705-4.882-5.705-3.298 0-5.64 2.833-6.594 7.902l11.37.046zm149.86 26.259c-3.568 1.211-6.95 1.797-10.606 1.797-11.527 0-17.56-6.798-17.56-19.765 0-15.146 7.678-26.319 18.059-26.319 8.508 0 13.928 6.246 13.928 16.052 0 3.241-.354 6.417-1.269 10.892h-20.55c-.072.659-.087.986-.087 1.371 0 5.146 3.084 7.742 9.071 7.742 3.693 0 7.022-.86 10.728-2.795l-1.714 11.025zm-5.803-26.259c.046-.933.076-1.676.076-2.243 0-3.599-1.805-5.705-4.879-5.705-3.298 0-5.632 2.833-6.588 7.902l11.391.046zM39.21 86.627c-2.021-1.352-4.757-2.533-8.623-2.533-4.173 0-7.531.865-7.531 5.305 0 7.841 15.216 4.913 15.216 21.704 0 15.294-10.043 19.259-19.128 19.259-4.042 0-8.692-1.337-12.119-2.86l2.467-11.238c2.068 1.878 6.24 3.165 9.652 3.165 3.251 0 8.346-.888 8.346-6.562 0-8.885-15.208-5.58-15.208-21.175 0-14.266 8.884-18.539 17.454-18.539 4.826 0 9.36.708 12.019 2.475L39.21 86.627zm60.781 41.831c-2.129 1.024-4.972 1.698-9.168 1.698-9.022 0-14.617-9.018-14.617-19.997 0-14.369 8.093-25.832 20.004-25.832 2.598 0 6.563 1.124 9.691 2.937l-2.283 10.541c-2.214-1.455-4.519-2.38-6.893-2.38-5.519 0-9.461 5.058-9.461 14.121 0 5.218 2.859 9.498 7.377 9.498 2.689 0 4.581-.567 6.895-1.92l-1.545 11.334zm38.612-11.052c-.53 3.797-1.022 7.483-1.315 11.444h-9.937l.838-7.134h-.101c-3.112 4.849-6.332 8.15-11.958 8.15-6.239 0-9.62-6.565-9.62-15.139 0-2.955.184-4.623.844-9.238l2.813-20.428h11.059l-2.967 20.488c-.3 2.201-.722 4.384-.722 6.661 0 2.582 1.176 5.194 4.158 5.034 4.533 0 7.208-5.545 7.969-12.015l3.052-20.169h10.705l-4.818 32.346zm208.311 10.911h-1.672v-7.32h-2.418v-1.568h6.508v1.568h-2.418v7.32zm11.086 0h-1.562v-7.43h-.022l-1.493 7.43h-1.638l-1.458-7.43h-.023v7.43h-1.558v-8.888h2.438l1.451 7.007h.022l1.425-7.007H358v8.888z" fill-rule="evenodd" clip-rule="evenodd" fill="#F89620"/></svg>