<svg xmlns="http://www.w3.org/2000/svg" width="500" height="105"><path d="M209.967 23.33c-8.938 0-19.103 4.143-25.314 12.438l.004-.016-.004.004.004-11.124h-21.318v77.633h21.314V58.091c0-7.95 6.164-16.402 17.578-16.402 8.82 0 17.948 6.136 17.948 16.402v44.174h21.318V54.141c0-17.856-12.775-30.811-31.53-30.811m183.043 1.306l-19.272 52.881-19.272-52.881h-24.352l31.942 77.608h23.36l31.942-77.608H393.01zM99.697 48.023c3.63-4.875 9.413-7.737 16.397-7.737 7.682 0 13.51 4.387 16.523 10.863L95.373 66.601c-1.017-7.93 1.012-14.132 4.324-18.578m40.955 30.374c-8.972 6.64-14.098 8.224-22.28 8.224-7.363 0-13.128-2.286-17.192-6.295l54.5-22.609c-1.19-8.425-4.388-15.952-9.308-21.675-7.161-8.316-17.76-12.716-30.665-12.716-23.44 0-41.115 17.292-41.115 40.132 0 23.432 17.717 40.127 43.465 40.127 14.426 0 29.176-6.837 36.076-14.825l-13.48-10.363zM72.56 82.691H24.109V1.415H2.5v100.85h70.06V82.691zm383.077-41.097c-11.905 0-20.55 9.022-20.55 21.856 0 12.254 9.157 21.856 20.836 21.856 11.909 0 20.549-9.27 20.549-21.856 0-12.254-9.153-21.856-20.835-21.856m0 61.98c-23.314 0-41.582-17.369-41.582-40.124 0-22.5 18.394-40.124 41.868-40.124 23.314 0 41.577 17.368 41.577 40.124 0 22.495-18.39 40.123-41.863 40.123M291.508 41.594c-11.905 0-20.545 9.022-20.545 21.856 0 12.254 9.153 21.856 20.835 21.856 11.905 0 20.545-9.27 20.545-21.856 0-12.254-9.153-21.856-20.835-21.856m0 61.98c-23.314 0-41.577-17.369-41.577-40.124 0-22.5 18.389-40.124 41.867-40.124 23.31 0 41.577 17.368 41.577 40.124 0 22.495-18.393 40.123-41.867 40.123" fill="#e60012"/></svg>